<?xml version="1.0" standalone="no"?>
<!DOCTYPE svg PUBLIC "-//W3C//DTD SVG 20010904//EN"
 "http://www.w3.org/TR/2001/REC-SVG-20010904/DTD/svg10.dtd">
<svg version="1.0" xmlns="http://www.w3.org/2000/svg"
 width="1000.000000pt" height="1000.000000pt" viewBox="0 0 1000.000000 1000.000000"
 preserveAspectRatio="xMidYMid meet">

<g transform="translate(0.000000,1000.000000) scale(0.100000,-0.100000)"
fill="#000000" stroke="none">
<path d="M1908 5680 c-161 -27 -317 -118 -416 -243 -173 -217 -205 -500 -84
-742 90 -181 266 -320 461 -364 l37 -8 82 176 c45 97 82 179 82 184 0 4 -81 7
-180 7 l-180 0 2 353 3 352 43 3 42 3 0 -168 c0 -92 3 -232 7 -310 l6 -143
152 0 153 0 36 76 c20 42 36 78 36 80 0 2 -49 4 -110 4 l-110 0 0 240 0 240
45 0 45 0 0 -195 0 -195 88 0 87 0 113 241 c61 132 112 245 112 250 0 15 -81
70 -155 104 -120 56 -267 77 -397 55z"/>
<path d="M4765 5451 c-48 -20 -76 -87 -61 -146 12 -49 52 -75 113 -75 47 0 59
4 84 29 25 25 29 37 29 81 0 46 -4 56 -34 86 -27 27 -42 34 -72 33 -22 0 -48
-4 -59 -8z"/>
<path d="M6292 5405 c-92 -29 -146 -96 -158 -199 l-7 -56 -73 0 -74 0 0 -65 0
-65 75 0 75 0 0 -235 0 -236 88 3 87 3 3 233 2 232 100 0 100 0 0 65 0 65
-100 0 -100 0 0 40 c0 31 7 47 26 67 23 23 30 25 97 21 40 -3 79 -8 88 -12 13
-6 19 5 32 56 9 34 14 64 12 66 -2 3 -30 11 -62 18 -72 17 -155 17 -211 -1z"/>
<path d="M3150 4940 l0 -390 143 0 c218 0 301 21 364 93 93 106 44 289 -83
313 l-37 7 36 18 c20 11 49 35 64 56 24 32 28 45 28 104 0 75 -16 106 -74 146
-48 33 -117 43 -286 43 l-155 0 0 -390z m292 250 c55 -16 74 -65 47 -123 -15
-33 -49 -47 -114 -47 l-55 0 0 90 0 90 43 0 c23 0 59 -5 79 -10z m70 -328 c34
-34 32 -102 -5 -139 -24 -25 -36 -28 -107 -31 l-80 -4 0 102 0 102 85 -3 c72
-3 88 -7 107 -27z"/>
<path d="M6690 4939 l0 -391 178 4 c205 5 267 22 322 85 41 46 52 76 52 145 0
89 -39 142 -128 173 -33 11 -36 14 -19 21 101 36 149 180 88 263 -54 73 -123
91 -338 91 l-155 0 0 -391z m327 226 c32 -37 30 -80 -6 -116 -26 -26 -36 -29
-90 -29 l-61 0 0 91 0 92 67 -6 c57 -4 71 -9 90 -32z m13 -290 c50 -26 59
-111 15 -154 -22 -23 -36 -26 -105 -29 l-80 -4 0 101 0 101 70 0 c43 0 82 -6
100 -15z"/>
<path d="M4207 5156 c-46 -17 -100 -57 -130 -97 l-22 -31 -6 24 c-4 13 -7 40
-8 61 l-1 37 -75 0 -75 0 2 -297 3 -298 88 -3 87 -3 0 166 0 166 30 44 c42 60
122 100 188 92 26 -3 54 -8 63 -12 13 -5 19 7 33 59 21 84 21 82 -15 95 -43
15 -115 13 -162 -3z"/>
<path d="M5431 5148 c-115 -44 -191 -161 -191 -292 0 -130 59 -229 168 -283
51 -25 68 -28 152 -28 90 1 164 19 218 54 21 13 -33 115 -56 106 -84 -35 -142
-42 -204 -23 -43 13 -98 68 -98 98 0 19 8 20 194 20 l193 0 7 41 c9 56 -10
155 -40 206 -63 109 -211 152 -343 101z m162 -121 c40 -17 55 -35 63 -75 l7
-32 -122 0 c-113 0 -121 1 -121 19 0 29 47 80 83 90 45 13 54 13 90 -2z"/>
<path d="M7557 5156 c-101 -37 -164 -106 -192 -211 -42 -153 19 -305 149 -373
44 -23 63 -27 136 -27 73 0 92 4 136 27 101 53 158 152 159 278 0 132 -55 231
-159 285 -69 35 -167 44 -229 21z m170 -160 c64 -75 53 -250 -18 -300 -58 -41
-148 -2 -169 72 -27 98 3 220 60 250 38 19 101 8 127 -22z"/>
<path d="M4540 5085 l0 -65 100 0 100 0 -2 -162 -3 -163 -97 -3 -98 -3 0 -69
0 -70 285 0 285 0 0 70 0 70 -100 0 -100 0 0 230 0 230 -185 0 -185 0 0 -65z"/>
<path d="M8070 5145 c0 -2 39 -64 87 -137 47 -73 86 -138 86 -144 0 -5 -38
-69 -86 -142 -126 -192 -124 -172 -18 -172 l90 0 57 106 56 106 71 -106 70
-106 88 0 c49 0 89 3 89 6 0 3 -43 68 -95 144 -52 76 -95 143 -95 149 0 5 31
59 68 118 37 59 78 125 91 146 l23 37 -91 0 -91 0 -47 -95 c-26 -52 -50 -95
-54 -95 -4 0 -32 43 -63 95 l-57 95 -89 0 c-50 0 -90 -2 -90 -5z"/>
</g>
</svg>
