<svg data-v-fde0c5aa="" xmlns="http://www.w3.org/2000/svg" viewBox="0 0 300 300" class="iconLeft"><!----><defs data-v-fde0c5aa=""><!----></defs><rect data-v-fde0c5aa="" fill="transparent" x="0" y="0" width="300px" height="300px" class="logo-background-square"></rect><defs data-v-fde0c5aa=""><!----></defs><g data-v-fde0c5aa="" id="c95feada-a588-45ff-8d58-5d5e22a62a1e" fill="#000000" transform="matrix(2.5274725686757016,0,0,2.5274725686757016,91.4934090769279,128.5923066684088)"><path d="M1.18 13.78L4.30 13.78C6.27 13.78 7.80 12.94 7.80 11.06C7.80 9.81 7.11 9.13 5.81 8.89L5.81 8.83C6.89 8.54 7.38 7.66 7.38 6.83C7.38 5.05 5.92 4.54 4.03 4.54L1.18 4.54ZM3.23 8.27L3.23 6.13L3.95 6.13C4.91 6.13 5.36 6.41 5.36 7.13C5.36 7.83 4.94 8.27 3.93 8.27ZM3.23 12.18L3.23 9.73L4.13 9.73C5.26 9.73 5.78 10.08 5.78 10.91C5.78 11.75 5.25 12.18 4.13 12.18ZM10.02 13.78L12.08 13.78L12.08 10.02C12.67 8.74 13.57 8.26 14.42 8.26C14.94 8.26 15.22 8.34 15.65 8.47L16.07 6.75C15.67 6.57 15.34 6.45 14.73 6.45C13.62 6.45 12.60 7.03 11.91 8.20L11.87 8.20L11.70 6.64L10.02 6.64ZM20.97 5.80C21.78 5.80 22.37 5.26 22.37 4.42C22.37 3.58 21.78 3.00 20.97 3.00C20.16 3.00 19.57 3.58 19.57 4.42C19.57 5.26 20.16 5.80 20.97 5.80ZM17.65 13.78L24.47 13.78L24.47 12.11L22.09 12.11L22.09 6.64L17.65 6.64L17.65 8.25L20.03 8.25L20.03 12.11L17.65 12.11ZM29.82 13.94C30.74 13.94 31.78 13.62 32.56 13.12L31.89 11.87C31.28 12.21 30.73 12.38 30.10 12.38C29.08 12.38 28.22 11.90 28.08 10.81L32.76 10.81C32.79 10.63 32.84 10.25 32.84 9.88C32.84 7.94 31.72 6.45 29.58 6.45C27.73 6.45 25.97 7.87 25.97 10.21C25.97 12.57 27.66 13.94 29.82 13.94ZM28.06 9.44C28.24 8.48 28.88 8.04 29.62 8.04C30.56 8.04 30.98 8.60 30.98 9.44ZM36.58 13.78L38.64 13.78L38.64 8.25L41.03 8.25L41.03 6.64L38.64 6.64L38.64 6.40C38.64 5.52 39.06 5.11 39.94 5.11C40.47 5.11 40.96 5.21 41.40 5.39L41.79 3.88C41.20 3.67 40.49 3.49 39.69 3.49C37.52 3.49 36.58 4.77 36.58 6.41L36.58 6.64L34.75 6.72L34.75 8.25L36.58 8.25ZM43.18 13.78L46.30 13.78C48.27 13.78 49.80 12.94 49.80 11.06C49.80 9.81 49.11 9.13 47.81 8.89L47.81 8.83C48.89 8.54 49.38 7.66 49.38 6.83C49.38 5.05 47.92 4.54 46.03 4.54L43.18 4.54ZM45.23 8.27L45.23 6.13L45.95 6.13C46.91 6.13 47.36 6.41 47.36 7.13C47.36 7.83 46.94 8.27 45.93 8.27ZM45.23 12.18L45.23 9.73L46.13 9.73C47.26 9.73 47.78 10.08 47.78 10.91C47.78 11.75 47.25 12.18 46.13 12.18ZM54.60 13.94C56.43 13.94 58.14 12.59 58.14 10.21C58.14 7.83 56.43 6.45 54.60 6.45C52.77 6.45 51.06 7.83 51.06 10.21C51.06 12.59 52.77 13.94 54.60 13.94ZM54.60 12.28C53.65 12.28 53.17 11.47 53.17 10.21C53.17 8.95 53.65 8.12 54.60 8.12C55.55 8.12 56.03 8.95 56.03 10.21C56.03 11.47 55.55 12.28 54.60 12.28ZM59.32 13.78L61.47 13.78L62.16 12.56C62.37 12.14 62.59 11.73 62.80 11.33L62.86 11.33C63.11 11.73 63.41 12.17 63.66 12.56L64.46 13.78L66.67 13.78L64.26 10.29L66.53 6.64L64.37 6.64L63.76 7.81L63.18 9.03L63.13 9.03C62.89 8.64 62.61 8.22 62.40 7.81L61.68 6.64L59.47 6.64L61.73 10.07Z"></path></g><defs data-v-fde0c5aa=""><linearGradient data-v-fde0c5aa="" gradientTransform="rotate(25)" id="465835df-ef6b-49c2-9caf-2dae9a6c8e93" x1="0%" y1="0%" x2="100%" y2="0%"><stop data-v-fde0c5aa="" offset="0%" stop-color="#000A68" stop-opacity="1"></stop><stop data-v-fde0c5aa="" offset="100%" stop-color="#00C4EE" stop-opacity="1"></stop></linearGradient></defs><g data-v-fde0c5aa="" id="40fdceae-2f72-49e1-8055-bd401702c9d3" stroke="none" fill="url(#465835df-ef6b-49c2-9caf-2dae9a6c8e93)" transform="matrix(1.2961195898966322,0,0,1.2961195898966322,40,129.2620865616539)"><path d="M16 32c8.837 0 16-7.163 16-16S24.837 0 16 0 0 7.163 0 16s7.163 16 16 16zM14.817 6.421h2v8.886h8.887v2H14.817V6.421zm-5.959.437h2v14.283h14.283v2H8.858V6.858z"></path></g><!----></svg>